# xmcd
#
# Track frame offsets:
#	150
#	14732
#	37085
#	55041
#	74080
#	86154
#	101328
#	109455
#	130302
#	147866
#	157315
#	171774
#	187530
#	201767
#	221971
#	237097
#	255981
#	274147
#	294888
#	316949
#
# Disc length: 4395 seconds
#
# Revision: 1
# Processed by: cddbd v1.5.2PL0 Copyright (c) Steve Scherf et al.
# Submitted via: audiograbber 1.83.01
#
DISCID=2e112914
DTITLE=Tracy Chapman - Greatest Hits
DYEAR=1900
DGENRE=Soul
TTITLE0=baby can i hold you
TTITLE1=fast car
TTITLE2=telling stories
TTITLE3=crossroads
TTITLE4=talkin bout a revolution
TTITLE5=across the lines
TTITLE6=behind the wall
TTITLE7=moutain o things
TTITLE8=she's got her ticket
TTITLE9=why?
TTITLE10=for my lover
TTITLE11=if not now
TTITLE12=for you
TTITLE13=give me one reason
TTITLE14=less than strangers
TTITLE15=speak the word
TTITLE16=it's ok
TTITLE17=wedding song
TTITLE18=paper and ink
TTITLE19=devotion
EXTD=
EXTT0=
EXTT1=
EXTT2=
EXTT3=
EXTT4=
EXTT5=
EXTT6=
EXTT7=
EXTT8=
EXTT9=
EXTT10=
EXTT11=
EXTT12=
EXTT13=
EXTT14=
EXTT15=
EXTT16=
EXTT17=
EXTT18=
EXTT19=
PLAYORDER=
